<svg xmlns="http://www.w3.org/2000/svg" xmlns:xlink="http://www.w3.org/1999/xlink" xmlns:sketch="http://www.bohemiancoding.com/sketch/ns" viewBox="0 0 54 54" version="1.1" x="0px" y="0px"><title>47 - Down (Solid)</title><desc>Created with Sketch.</desc><g stroke="none" stroke-width="1" fill="none" fill-rule="evenodd" sketch:type="MSPage"><g sketch:type="MSLayerGroup" fill="#000000"><path d="M49.217,0 L4.783,0 C2.146,0 0,2.145 0,4.783 L0,49.218 C0,51.854 2.146,54 4.783,54 L49.217,54 C51.854,54 54,51.854 54,49.217 L54,4.782 C54,2.145 51.854,0 49.217,0 L49.217,0 Z M40.881,18.956 L28.707,40.044 C28.351,40.661 27.712,41.029 27,41.029 C26.288,41.029 25.649,40.661 25.293,40.044 L13.118,18.956 C12.762,18.34 12.762,17.602 13.118,16.985 C13.475,16.368 14.113,16 14.825,16 L39.175,16 C39.887,16 40.525,16.368 40.882,16.985 C41.238,17.602 41.238,18.34 40.881,18.956 L40.881,18.956 Z" sketch:type="MSShapeGroup"></path></g></g></svg>